<?xml version="1.0" standalone="no"?>
<!DOCTYPE svg PUBLIC "-//W3C//DTD SVG 20010904//EN"
 "http://www.w3.org/TR/2001/REC-SVG-20010904/DTD/svg10.dtd">
<svg version="1.0" xmlns="http://www.w3.org/2000/svg"
 width="512.000000pt" height="512.000000pt" viewBox="0 0 512.000000 512.000000"
 preserveAspectRatio="xMidYMid meet">

<g transform="translate(0.000000,512.000000) scale(0.100000,-0.100000)"
fill="#fff" stroke="none">
<path d="M2880 5104 c-221 -47 -408 -236 -455 -459 -8 -38 -15 -82 -15 -97 l0
-28 148 0 148 0 12 58 c48 234 334 320 502 152 61 -61 85 -119 85 -210 0 -91
-24 -149 -85 -210 -66 -66 -116 -83 -247 -88 l-113 -4 -2 -326 -3 -325 -130
-44 c-71 -24 -138 -46 -147 -49 -16 -5 -18 3 -18 65 l0 71 -407 0 -408 0 -342
-342 -343 -343 0 -557 0 -558 300 0 300 0 0 -155 0 -154 543 -3 c504 -3 546
-5 592 -23 167 -63 285 -183 341 -346 27 -78 25 -242 -5 -323 -23 -64 -69
-142 -101 -171 -25 -23 -25 -47 0 -70 32 -29 78 -107 102 -171 31 -85 31 -256
0 -334 -12 -30 -22 -56 -22 -57 0 -2 281 -3 625 -3 l625 0 0 905 0 905 300 0
300 0 0 558 0 557 -343 343 -342 342 -408 0 -407 0 0 -71 c0 -62 -2 -70 -17
-65 -10 3 -76 25 -148 49 l-130 44 -3 185 -2 185 47 18 c124 46 250 146 311
248 146 243 111 540 -87 738 -149 149 -347 207 -551 163z m350 -1875 c118 -39
218 -74 222 -78 13 -12 -11 -122 -40 -185 -81 -172 -282 -279 -468 -248 -192
32 -344 181 -374 368 -5 32 -7 60 -4 63 6 7 423 149 439 150 5 1 107 -31 225
-70z"/>
<path d="M310 1187 c-76 -24 -150 -129 -150 -212 0 -87 75 -189 156 -213 60
-17 2328 -17 2388 0 81 24 156 126 156 213 0 87 -75 189 -156 213 -56 16
-2341 16 -2394 -1z"/>
<path d="M310 437 c-76 -24 -150 -129 -150 -212 0 -87 75 -189 156 -213 60
-17 2328 -17 2388 0 81 24 156 126 156 213 0 87 -75 189 -156 213 -56 16
-2341 16 -2394 -1z"/>
</g>
</svg>
