<?xml version="1.0" standalone="no"?>
<!DOCTYPE svg PUBLIC "-//W3C//DTD SVG 20010904//EN"
 "http://www.w3.org/TR/2001/REC-SVG-20010904/DTD/svg10.dtd">
<svg version="1.0" xmlns="http://www.w3.org/2000/svg"
 width="512.000000pt" height="512.000000pt" viewBox="0 0 512.000000 512.000000"
 preserveAspectRatio="xMidYMid meet">

<g transform="translate(0.000000,512.000000) scale(0.100000,-0.100000)"
fill="#fff" stroke="none">
<path d="M775 4787 c-38 -17 -98 -83 -126 -138 -32 -64 -66 -212 -80 -350 -28
-295 18 -780 116 -1220 19 -83 35 -152 37 -153 48 -27 98 -67 146 -116 83 -83
101 -83 191 9 130 133 271 171 438 117 l21 -7 5 273 c4 292 9 325 64 452 14
34 26 72 26 86 -1 31 -73 202 -160 375 -171 342 -341 567 -493 649 -60 33
-141 43 -185 23z m387 -474 c8 -10 18 -27 22 -37 10 -29 -180 -593 -210 -623
-43 -43 -114 -21 -129 39 -8 30 189 608 212 626 25 18 87 15 105 -5z m182
-614 c19 -15 26 -30 26 -53 0 -40 -185 -584 -206 -607 -44 -48 -133 -17 -134
47 0 12 43 149 95 305 74 221 101 289 121 307 31 28 64 28 98 1z"/>
<path d="M2080 4520 l0 -120 320 0 320 0 0 120 0 120 -320 0 -320 0 0 -120z"/>
<path d="M2158 4119 l-3 -121 -50 -21 c-89 -39 -148 -79 -220 -151 -82 -83
-135 -170 -172 -281 -27 -79 -27 -83 -31 -416 l-4 -336 30 -22 c52 -37 77 -29
151 48 48 51 85 79 136 103 64 30 78 33 165 33 86 0 101 -3 162 -32 47 -22 89
-53 138 -102 73 -73 107 -90 97 -48 -15 60 -18 191 -7 282 33 277 131 492 309
678 l76 79 -55 50 c-30 27 -97 70 -147 95 l-93 46 0 119 0 118 -240 0 -239 0
-3 -121z"/>
<path d="M3898 3981 c-74 -24 -116 -51 -169 -108 -58 -62 -86 -109 -114 -188
l-22 -64 -35 43 c-53 63 -145 108 -233 114 -95 6 -164 -15 -258 -78 -165 -110
-303 -339 -346 -577 -14 -72 -26 -253 -18 -253 4 0 28 14 54 30 93 59 200 75
304 44 87 -26 128 -52 200 -125 91 -93 104 -92 198 2 49 48 92 80 139 102 61
29 76 32 162 32 86 0 101 -3 163 -32 48 -23 88 -53 137 -103 89 -91 109 -93
186 -16 51 52 54 59 65 128 14 88 6 242 -16 330 -39 151 -122 266 -232 320
-57 28 -75 32 -141 31 -45 0 -95 -7 -121 -17 -24 -9 -45 -15 -46 -14 -2 2 4
24 11 49 20 67 74 139 128 174 42 26 59 30 142 33 87 4 96 7 114 30 27 33 25
65 -4 99 -23 26 -30 28 -108 30 -59 2 -99 -2 -140 -16z"/>
<path d="M560 1560 l0 -1240 1560 0 1560 0 0 1230 c0 677 -3 1230 -8 1230 -15
0 -58 -34 -122 -96 -74 -72 -118 -94 -190 -94 -73 0 -115 22 -196 100 -40 39
-92 79 -115 90 -97 44 -194 14 -294 -90 -71 -74 -121 -99 -193 -100 -75 0
-116 21 -198 100 -40 39 -92 79 -115 90 -97 44 -194 14 -294 -90 -72 -75 -121
-100 -195 -100 -74 0 -123 25 -195 100 -140 146 -270 146 -410 0 -71 -74 -121
-99 -193 -100 -75 0 -116 21 -198 100 -71 69 -138 109 -181 110 l-23 0 0
-1240z"/>
<path d="M4465 2776 c-28 -13 -76 -51 -110 -86 -71 -74 -121 -99 -193 -100
-74 0 -117 21 -192 94 -64 62 -107 96 -122 96 -5 0 -8 -553 -8 -1230 l0 -1230
360 0 360 0 0 1240 0 1240 -22 0 c-13 0 -45 -11 -73 -24z"/>
</g>
</svg>
