<?xml version="1.0" standalone="no"?>
<!DOCTYPE svg PUBLIC "-//W3C//DTD SVG 20010904//EN"
 "http://www.w3.org/TR/2001/REC-SVG-20010904/DTD/svg10.dtd">
<svg version="1.0" xmlns="http://www.w3.org/2000/svg"
 width="512.000000pt" height="512.000000pt" viewBox="0 0 512.000000 512.000000"
 preserveAspectRatio="xMidYMid meet">

<g transform="translate(0.000000,512.000000) scale(0.100000,-0.100000)"
fill="#FFC000" stroke="none">
<path d="M2465 4903 c-484 -18 -982 -205 -1370 -513 -476 -380 -793 -952 -865
-1565 -16 -128 -16 -402 0 -530 72 -613 389 -1185 865 -1565 334 -266 740
-438 1170 -496 134 -18 424 -20 560 -4 798 94 1490 584 1840 1305 165 337 237
651 236 1025 0 375 -76 705 -236 1028 -237 478 -598 840 -1074 1075 -345 172
-734 254 -1126 240z m303 -434 c486 -52 946 -298 1260 -674 683 -815 579
-2021 -233 -2703 -887 -745 -2217 -544 -2849 430 -523 805 -359 1889 379 2506
403 338 926 498 1443 441z"/>
<path d="M2945 3511 c-42 -11 -86 -35 -112 -63 -52 -56 -69 -163 -35 -228 9
-19 94 -124 187 -233 94 -109 172 -202 173 -207 2 -6 -307 -10 -846 -10 -615
0 -858 -3 -883 -12 -128 -43 -183 -191 -113 -305 22 -36 43 -55 83 -75 l55
-28 854 0 c541 0 852 -4 850 -10 -1 -5 -79 -98 -173 -207 -93 -109 -178 -214
-187 -233 -34 -65 -17 -172 35 -228 12 -13 38 -32 57 -42 93 -47 177 -30 256
52 91 94 652 756 670 790 23 43 23 133 0 176 -18 34 -579 696 -670 790 -37 38
-64 57 -100 67 -54 16 -57 16 -101 6z"/>
</g>
</svg>
