<svg id="Layer_1" data-name="Layer 1" xmlns="http://www.w3.org/2000/svg" xmlns:xlink="http://www.w3.org/1999/xlink" viewBox="0 0 214.3 31.94"><defs><style>.cls-1{fill:none;}.cls-2{clip-path:url(#clip-path);}.cls-3{fill:#c94835;}.cls-4{fill:#c94735;}.cls-5{fill:#ca4735;}.cls-6{fill:#ca4635;}.cls-7{fill:#cb4535;}.cls-8{fill:#cb4534;}.cls-9{fill:#cb4434;}.cls-10{fill:#cc4434;}.cls-11{fill:#cc4334;}.cls-12{fill:#cc4234;}.cls-13{fill:#cd4234;}.cls-14{fill:#cd4134;}.cls-15{fill:#cd4034;}.cls-16{fill:#ce4034;}.cls-17{fill:#ce3f33;}.cls-18{fill:#cf3f33;}.cls-19{fill:#cf3e33;}.cls-20{fill:#cf3d33;}.cls-21{fill:#d03d33;}.cls-22{fill:#d03c33;}.cls-23{fill:#d03b33;}.cls-24{fill:#d13b33;}.cls-25{fill:#d13a33;}.cls-26{fill:#d13a32;}.cls-27{fill:#d23932;}.cls-28{fill:#d23832;}.cls-29{fill:#d33832;}.cls-30{fill:#d33732;}.cls-31{fill:#fff;}.cls-32{clip-path:url(#clip-path-2);}.cls-33{clip-path:url(#clip-path-3);}</style><clipPath id="clip-path"><path class="cls-1" d="M31.09,21.62l1,.8.52.4.55.35c.37.23.71.48,1.09.69l1.13.61a14.27,14.27,0,0,0,4.76,1.43,10,10,0,0,0,4.67-.55,8.91,8.91,0,0,0,3.74-2.54,8.44,8.44,0,0,0,1.9-3.93c0-.18,0-.36.08-.53s.07-.35.08-.53,0-.35,0-.52l0-.26v-.27a9,9,0,0,0,0-1c0-.18,0-.35,0-.53l-.09-.52a11.68,11.68,0,0,0-1.63-4.17,29.82,29.82,0,0,0-3.15-4l.19-.33a11.91,11.91,0,0,1,5,2.55,11,11,0,0,1,3.33,5,9.81,9.81,0,0,1-.1,6.22A13.17,13.17,0,0,1,50.81,25a11.79,11.79,0,0,1-5.21,2.83,12.32,12.32,0,0,1-5.76,0,15.73,15.73,0,0,1-5-2.3,22.92,22.92,0,0,1-4-3.62Z"/></clipPath><clipPath id="clip-path-2"><path class="cls-1" d="M3.8,12.65s3.14-6,9.14-6c5.69,0,8.07,4.17,9.48,6.27.47.13.47-.43.47-.43s-3.58-9.12-10.59-8S3.8,12.65,3.8,12.65Z"/></clipPath><clipPath id="clip-path-3"><path class="cls-1" d="M6.12,18.21a13.68,13.68,0,0,0,2.13,3.26,9.33,9.33,0,0,0,2.92,2.31,7,7,0,0,0,3.42.7,10.42,10.42,0,0,0,1.8-.22A8.51,8.51,0,0,0,18,23.73a6.7,6.7,0,0,0,2.55-2.09,16.32,16.32,0,0,0,1.8-3.14c.54-1.15,1-2.4,1.63-3.68.3-.64.62-1.27,1-1.94A14.82,14.82,0,0,1,26.35,11,16.66,16.66,0,0,1,29.78,7.8a14.25,14.25,0,0,1,4.35-2,10.65,10.65,0,0,1,5.13-.19,9,9,0,0,1,2.59,1,8.73,8.73,0,0,1,3,2.89c.12.19.23.39.34.58s.21.4.28.57a12.57,12.57,0,0,1,.79,2.31,10.28,10.28,0,0,1,.29,2.49,8.9,8.9,0,0,1-1.42,4.75,8.66,8.66,0,0,1-1.58,1.77,8.23,8.23,0,0,1-1.9,1.23,6.5,6.5,0,0,1-2.12.61l-.18-.47a8.28,8.28,0,0,0,3.19-6.06,7,7,0,0,0-.67-2.94,10.61,10.61,0,0,0-.76-1.4,3.4,3.4,0,0,0-.2-.31l-.2-.27c-.15-.16-.29-.32-.44-.46a4.53,4.53,0,0,0-2.14-1.1,7.48,7.48,0,0,0-2.84,0,10.79,10.79,0,0,0-5.74,3c-1.55,1.53-2.62,3.95-4,6.37a17.87,17.87,0,0,1-2.58,3.58,10.54,10.54,0,0,1-1.81,1.5,9.07,9.07,0,0,1-2.13,1,9.91,9.91,0,0,1-2.25.47,14.82,14.82,0,0,1-2.21,0,8.86,8.86,0,0,1-4.23-1.46,10.93,10.93,0,0,1-3-3.1,14.28,14.28,0,0,1-1.7-3.78Z"/></clipPath></defs><rect width="214.3" height="31.94"/><g class="cls-2"><rect class="cls-3" x="30.82" y="6.14" width="13.36" height="22.16"/><rect class="cls-3" x="44.18" y="6.14" width="0.04" height="22.16"/><rect class="cls-3" x="44.22" y="6.14" width="0.04" height="22.16"/><rect class="cls-3" x="44.27" y="6.14" width="0.04" height="22.16"/><rect class="cls-3" x="44.31" y="6.14" width="0.04" height="22.16"/><rect class="cls-3" x="44.36" y="6.14" width="0.04" height="22.16"/><rect class="cls-4" x="44.4" y="6.14" width="0.04" height="22.16"/><rect class="cls-4" x="44.45" y="6.14" width="0.04" height="22.16"/><rect class="cls-4" x="44.49" y="6.14" width="0.04" height="22.16"/><rect class="cls-5" x="44.54" y="6.14" width="0.04" height="22.16"/><rect class="cls-5" x="44.58" y="6.14" width="0.04" height="22.16"/><rect class="cls-5" x="44.63" y="6.14" width="0.04" height="22.16"/><rect class="cls-5" x="44.67" y="6.14" width="0.04" height="22.16"/><rect class="cls-5" x="44.72" y="6.14" width="0.04" height="22.16"/><rect class="cls-6" x="44.76" y="6.14" width="0.04" height="22.16"/><rect class="cls-6" x="44.81" y="6.14" width="0.04" height="22.16"/><rect class="cls-6" x="44.85" y="6.14" width="0.04" height="22.16"/><rect class="cls-6" x="44.9" y="6.14" width="0.04" height="22.16"/><rect class="cls-6" x="44.94" y="6.14" width="0.04" height="22.16"/><rect class="cls-6" x="44.99" y="6.14" width="0.04" height="22.16"/><rect class="cls-6" x="45.03" y="6.14" width="0.04" height="22.16"/><rect class="cls-6" x="45.07" y="6.14" width="0.04" height="22.16"/><rect class="cls-6" x="45.12" y="6.14" width="0.04" height="22.16"/><rect class="cls-7" x="45.16" y="6.14" width="0.04" height="22.16"/><rect class="cls-7" x="45.21" y="6.14" width="0.04" height="22.16"/><rect class="cls-7" x="45.25" y="6.14" width="0.04" height="22.16"/><rect class="cls-8" x="45.3" y="6.14" width="0.04" height="22.16"/><rect class="cls-8" x="45.34" y="6.14" width="0.04" height="22.16"/><rect class="cls-8" x="45.39" y="6.14" width="0.04" height="22.16"/><rect class="cls-8" x="45.43" y="6.14" width="0.04" height="22.16"/><rect class="cls-8" x="45.48" y="6.14" width="0.04" height="22.16"/><rect class="cls-9" x="45.52" y="6.14" width="0.04" height="22.16"/><rect class="cls-9" x="45.57" y="6.14" width="0.04" height="22.16"/><rect class="cls-9" x="45.61" y="6.14" width="0.04" height="22.16"/><rect class="cls-9" x="45.66" y="6.14" width="0.04" height="22.16"/><rect class="cls-9" x="45.7" y="6.14" width="0.04" height="22.16"/><rect class="cls-9" x="45.75" y="6.14" width="0.04" height="22.16"/><rect class="cls-9" x="45.79" y="6.14" width="0.04" height="22.16"/><rect class="cls-10" x="45.84" y="6.14" width="0.04" height="22.16"/><rect class="cls-10" x="45.88" y="6.14" width="0.04" height="22.16"/><rect class="cls-11" x="45.93" y="6.14" width="0.04" height="22.16"/><rect class="cls-11" x="45.97" y="6.14" width="0.04" height="22.16"/><rect class="cls-11" x="46.01" y="6.14" width="0.04" height="22.16"/><rect class="cls-11" x="46.06" y="6.14" width="0.04" height="22.16"/><rect class="cls-11" x="46.1" y="6.14" width="0.04" height="22.16"/><rect class="cls-11" x="46.15" y="6.14" width="0.04" height="22.16"/><rect class="cls-11" x="46.19" y="6.14" width="0.04" height="22.16"/><rect class="cls-11" x="46.24" y="6.14" width="0.04" height="22.16"/><rect class="cls-12" x="46.28" y="6.14" width="0.04" height="22.16"/><rect class="cls-12" x="46.33" y="6.14" width="0.04" height="22.16"/><rect class="cls-12" x="46.37" y="6.14" width="0.04" height="22.16"/><rect class="cls-12" x="46.42" y="6.14" width="0.04" height="22.16"/><rect class="cls-13" x="46.46" y="6.14" width="0.04" height="22.16"/><rect class="cls-13" x="46.51" y="6.14" width="0.04" height="22.16"/><rect class="cls-13" x="46.55" y="6.14" width="0.04" height="22.16"/><rect class="cls-13" x="46.6" y="6.14" width="0.04" height="22.16"/><rect class="cls-13" x="46.64" y="6.14" width="0.04" height="22.16"/><rect class="cls-14" x="46.69" y="6.14" width="0.04" height="22.16"/><rect class="cls-14" x="46.73" y="6.14" width="0.04" height="22.16"/><rect class="cls-14" x="46.78" y="6.14" width="0.04" height="22.16"/><rect class="cls-14" x="46.82" y="6.14" width="0.04" height="22.16"/><rect class="cls-14" x="46.87" y="6.14" width="0.04" height="22.16"/><rect class="cls-14" x="46.91" y="6.14" width="0.04" height="22.16"/><rect class="cls-14" x="46.96" y="6.14" width="0.04" height="22.16"/><rect class="cls-14" x="47" y="6.14" width="0.04" height="22.16"/><rect class="cls-15" x="47.04" y="6.14" width="0.04" height="22.16"/><rect class="cls-15" x="47.09" y="6.14" width="0.04" height="22.16"/><rect class="cls-16" x="47.13" y="6.14" width="0.04" height="22.16"/><rect class="cls-16" x="47.18" y="6.14" width="0.04" height="22.16"/><rect class="cls-16" x="47.22" y="6.14" width="0.04" height="22.16"/><rect class="cls-16" x="47.27" y="6.14" width="0.04" height="22.16"/><rect class="cls-16" x="47.31" y="6.14" width="0.04" height="22.16"/><rect class="cls-16" x="47.36" y="6.14" width="0.04" height="22.16"/><rect class="cls-16" x="47.4" y="6.14" width="0.04" height="22.16"/><rect class="cls-17" x="47.45" y="6.14" width="0.04" height="22.16"/><rect class="cls-17" x="47.49" y="6.14" width="0.04" height="22.16"/><rect class="cls-17" x="47.54" y="6.14" width="0.04" height="22.16"/><rect class="cls-17" x="47.58" y="6.14" width="0.04" height="22.16"/><rect class="cls-17" x="47.63" y="6.14" width="0.04" height="22.16"/><rect class="cls-17" x="47.67" y="6.14" width="0.04" height="22.16"/><rect class="cls-17" x="47.72" y="6.14" width="0.04" height="22.16"/><rect class="cls-18" x="47.76" y="6.14" width="0.04" height="22.16"/><rect class="cls-18" x="47.81" y="6.14" width="0.04" height="22.16"/><rect class="cls-19" x="47.85" y="6.14" width="0.04" height="22.16"/><rect class="cls-19" x="47.9" y="6.14" width="0.04" height="22.16"/><rect class="cls-19" x="47.94" y="6.14" width="0.04" height="22.16"/><rect class="cls-19" x="47.98" y="6.14" width="0.04" height="22.16"/><rect class="cls-19" x="48.03" y="6.14" width="0.04" height="22.16"/><rect class="cls-19" x="48.07" y="6.14" width="0.04" height="22.16"/><rect class="cls-19" x="48.12" y="6.14" width="0.04" height="22.16"/><rect class="cls-19" x="48.16" y="6.14" width="0.04" height="22.16"/><rect class="cls-20" x="48.21" y="6.14" width="0.04" height="22.16"/><rect class="cls-20" x="48.25" y="6.14" width="0.04" height="22.16"/><rect class="cls-20" x="48.3" y="6.14" width="0.04" height="22.16"/><rect class="cls-20" x="48.34" y="6.14" width="0.04" height="22.16"/><rect class="cls-20" x="48.39" y="6.14" width="0.04" height="22.16"/><rect class="cls-21" x="48.43" y="6.14" width="0.04" height="22.16"/><rect class="cls-21" x="48.48" y="6.14" width="0.04" height="22.16"/><rect class="cls-21" x="48.52" y="6.14" width="0.04" height="22.16"/><rect class="cls-21" x="48.57" y="6.14" width="0.04" height="22.16"/><rect class="cls-22" x="48.61" y="6.14" width="0.04" height="22.16"/><rect class="cls-22" x="48.66" y="6.14" width="0.04" height="22.16"/><rect class="cls-22" x="48.7" y="6.14" width="0.04" height="22.16"/><rect class="cls-22" x="48.75" y="6.14" width="0.04" height="22.16"/><rect class="cls-22" x="48.79" y="6.14" width="0.04" height="22.16"/><rect class="cls-22" x="48.84" y="6.14" width="0.04" height="22.16"/><rect class="cls-22" x="48.88" y="6.14" width="0.04" height="22.16"/><rect class="cls-22" x="48.92" y="6.14" width="0.04" height="22.16"/><rect class="cls-23" x="48.97" y="6.14" width="0.04" height="22.16"/><rect class="cls-23" x="49.01" y="6.14" width="0.04" height="22.16"/><rect class="cls-24" x="49.06" y="6.14" width="0.04" height="22.16"/><rect class="cls-24" x="49.1" y="6.14" width="0.04" height="22.16"/><rect class="cls-24" x="49.15" y="6.14" width="0.04" height="22.16"/><rect class="cls-24" x="49.19" y="6.14" width="0.04" height="22.16"/><rect class="cls-24" x="49.24" y="6.14" width="0.04" height="22.16"/><rect class="cls-24" x="49.28" y="6.14" width="0.04" height="22.16"/><rect class="cls-24" x="49.33" y="6.14" width="0.04" height="22.16"/><rect class="cls-25" x="49.37" y="6.14" width="0.04" height="22.16"/><rect class="cls-25" x="49.42" y="6.14" width="0.04" height="22.16"/><rect class="cls-25" x="49.46" y="6.14" width="0.04" height="22.16"/><rect class="cls-25" x="49.51" y="6.14" width="0.04" height="22.16"/><rect class="cls-25" x="49.55" y="6.14" width="0.04" height="22.16"/><rect class="cls-26" x="49.6" y="6.14" width="0.04" height="22.16"/><rect class="cls-26" x="49.64" y="6.14" width="0.04" height="22.16"/><rect class="cls-26" x="49.69" y="6.14" width="0.04" height="22.16"/><rect class="cls-27" x="49.73" y="6.14" width="0.04" height="22.16"/><rect class="cls-27" x="49.78" y="6.14" width="0.04" height="22.16"/><rect class="cls-27" x="49.82" y="6.14" width="0.04" height="22.16"/><rect class="cls-27" x="49.86" y="6.14" width="0.04" height="22.16"/><rect class="cls-27" x="49.91" y="6.14" width="0.04" height="22.16"/><rect class="cls-27" x="49.95" y="6.14" width="0.04" height="22.16"/><rect class="cls-27" x="50" y="6.14" width="0.04" height="22.16"/><rect class="cls-27" x="50.04" y="6.14" width="0.04" height="22.16"/><rect class="cls-27" x="50.09" y="6.14" width="0.04" height="22.16"/><rect class="cls-28" x="50.13" y="6.14" width="0.04" height="22.16"/><rect class="cls-28" x="50.18" y="6.14" width="0.04" height="22.16"/><rect class="cls-28" x="50.22" y="6.14" width="0.04" height="22.16"/><rect class="cls-28" x="50.27" y="6.14" width="0.04" height="22.16"/><rect class="cls-28" x="50.31" y="6.14" width="0.04" height="22.16"/><rect class="cls-29" x="50.36" y="6.14" width="0.04" height="22.16"/><rect class="cls-29" x="50.4" y="6.14" width="0.04" height="22.16"/><rect class="cls-29" x="50.45" y="6.14" width="0.04" height="22.16"/><rect class="cls-30" x="50.49" y="6.14" width="0.04" height="22.16"/><rect class="cls-30" x="50.54" y="6.14" width="0.04" height="22.16"/><rect class="cls-30" x="50.58" y="6.14" width="0.04" height="22.16"/><rect class="cls-30" x="50.63" y="6.14" width="0.04" height="22.16"/><rect class="cls-30" x="50.67" y="6.14" width="0.04" height="22.16"/><rect class="cls-30" x="50.72" y="6.14" width="4.22" height="22.16"/></g><polygon class="cls-31" points="14.98 10.59 15.99 13.68 19.25 13.68 16.61 15.6 17.62 18.7 14.98 16.78 12.35 18.7 13.35 15.6 10.72 13.68 13.98 13.68 14.98 10.59"/><g class="cls-32"><rect class="cls-3" x="3.8" y="3.34" width="10.66" height="9.68"/><rect class="cls-3" x="14.45" y="3.34" width="0.04" height="9.68"/><rect class="cls-3" x="14.49" y="3.34" width="0.04" height="9.68"/><rect class="cls-3" x="14.53" y="3.34" width="0.04" height="9.68"/><rect class="cls-3" x="14.56" y="3.34" width="0.04" height="9.68"/><rect class="cls-3" x="14.6" y="3.34" width="0.04" height="9.68"/><rect class="cls-4" x="14.63" y="3.34" width="0.04" height="9.68"/><rect class="cls-4" x="14.67" y="3.34" width="0.04" height="9.68"/><rect class="cls-4" x="14.7" y="3.34" width="0.04" height="9.68"/><rect class="cls-5" x="14.74" y="3.34" width="0.04" height="9.68"/><rect class="cls-5" x="14.78" y="3.34" width="0.04" height="9.68"/><rect class="cls-5" x="14.81" y="3.34" width="0.04" height="9.68"/><rect class="cls-5" x="14.85" y="3.34" width="0.04" height="9.68"/><rect class="cls-5" x="14.88" y="3.34" width="0.04" height="9.68"/><rect class="cls-6" x="14.92" y="3.34" width="0.04" height="9.68"/><rect class="cls-6" x="14.95" y="3.34" width="0.04" height="9.68"/><rect class="cls-6" x="14.99" y="3.34" width="0.04" height="9.68"/><rect class="cls-6" x="15.03" y="3.34" width="0.04" height="9.68"/><rect class="cls-6" x="15.06" y="3.34" width="0.04" height="9.68"/><rect class="cls-6" x="15.1" y="3.34" width="0.04" height="9.68"/><rect class="cls-6" x="15.13" y="3.34" width="0.04" height="9.68"/><rect class="cls-6" x="15.17" y="3.34" width="0.04" height="9.68"/><rect class="cls-6" x="15.2" y="3.34" width="0.04" height="9.68"/><rect class="cls-7" x="15.24" y="3.34" width="0.04" height="9.68"/><rect class="cls-7" x="15.28" y="3.34" width="0.04" height="9.68"/><rect class="cls-7" x="15.31" y="3.34" width="0.04" height="9.68"/><rect class="cls-8" x="15.35" y="3.34" width="0.04" height="9.68"/><rect class="cls-8" x="15.38" y="3.34" width="0.04" height="9.68"/><rect class="cls-8" x="15.42" y="3.34" width="0.04" height="9.68"/><rect class="cls-8" x="15.45" y="3.34" width="0.04" height="9.68"/><rect class="cls-8" x="15.49" y="3.34" width="0.04" height="9.68"/><rect class="cls-9" x="15.53" y="3.34" width="0.04" height="9.68"/><rect class="cls-9" x="15.56" y="3.34" width="0.04" height="9.68"/><rect class="cls-9" x="15.6" y="3.34" width="0.04" height="9.68"/><rect class="cls-9" x="15.63" y="3.34" width="0.04" height="9.68"/><rect class="cls-9" x="15.67" y="3.34" width="0.04" height="9.68"/><rect class="cls-9" x="15.7" y="3.34" width="0.04" height="9.68"/><rect class="cls-9" x="15.74" y="3.34" width="0.04" height="9.68"/><rect class="cls-10" x="15.78" y="3.34" width="0.04" height="9.68"/><rect class="cls-10" x="15.81" y="3.34" width="0.04" height="9.68"/><rect class="cls-11" x="15.85" y="3.34" width="0.04" height="9.68"/><rect class="cls-11" x="15.88" y="3.34" width="0.04" height="9.68"/><rect class="cls-11" x="15.92" y="3.34" width="0.04" height="9.68"/><rect class="cls-11" x="15.95" y="3.34" width="0.04" height="9.68"/><rect class="cls-11" x="15.99" y="3.34" width="0.04" height="9.68"/><rect class="cls-11" x="16.03" y="3.34" width="0.04" height="9.68"/><rect class="cls-11" x="16.06" y="3.34" width="0.04" height="9.68"/><rect class="cls-11" x="16.1" y="3.34" width="0.04" height="9.68"/><rect class="cls-12" x="16.13" y="3.34" width="0.04" height="9.68"/><rect class="cls-12" x="16.17" y="3.34" width="0.04" height="9.68"/><rect class="cls-12" x="16.2" y="3.34" width="0.04" height="9.68"/><rect class="cls-12" x="16.24" y="3.34" width="0.04" height="9.68"/><rect class="cls-13" x="16.28" y="3.34" width="0.04" height="9.68"/><rect class="cls-13" x="16.31" y="3.34" width="0.04" height="9.68"/><rect class="cls-13" x="16.35" y="3.34" width="0.04" height="9.68"/><rect class="cls-13" x="16.38" y="3.34" width="0.04" height="9.68"/><rect class="cls-13" x="16.42" y="3.34" width="0.04" height="9.68"/><rect class="cls-14" x="16.45" y="3.34" width="0.04" height="9.68"/><rect class="cls-14" x="16.49" y="3.34" width="0.04" height="9.68"/><rect class="cls-14" x="16.53" y="3.34" width="0.04" height="9.68"/><rect class="cls-14" x="16.56" y="3.34" width="0.04" height="9.68"/><rect class="cls-14" x="16.6" y="3.34" width="0.04" height="9.68"/><rect class="cls-14" x="16.63" y="3.34" width="0.04" height="9.68"/><rect class="cls-14" x="16.67" y="3.34" width="0.04" height="9.68"/><rect class="cls-14" x="16.7" y="3.34" width="0.04" height="9.68"/><rect class="cls-15" x="16.74" y="3.34" width="0.04" height="9.68"/><rect class="cls-15" x="16.78" y="3.34" width="0.04" height="9.68"/><rect class="cls-16" x="16.81" y="3.34" width="0.04" height="9.68"/><rect class="cls-16" x="16.85" y="3.34" width="0.04" height="9.68"/><rect class="cls-16" x="16.88" y="3.34" width="0.04" height="9.68"/><rect class="cls-16" x="16.92" y="3.34" width="0.04" height="9.68"/><rect class="cls-16" x="16.95" y="3.34" width="0.04" height="9.68"/><rect class="cls-16" x="16.99" y="3.34" width="0.04" height="9.68"/><rect class="cls-16" x="17.03" y="3.34" width="0.04" height="9.68"/><rect class="cls-17" x="17.06" y="3.34" width="0.04" height="9.68"/><rect class="cls-17" x="17.1" y="3.34" width="0.04" height="9.68"/><rect class="cls-17" x="17.13" y="3.34" width="0.04" height="9.68"/><rect class="cls-17" x="17.17" y="3.34" width="0.04" height="9.68"/><rect class="cls-17" x="17.2" y="3.34" width="0.04" height="9.68"/><rect class="cls-17" x="17.24" y="3.34" width="0.04" height="9.68"/><rect class="cls-17" x="17.28" y="3.34" width="0.04" height="9.68"/><rect class="cls-18" x="17.31" y="3.34" width="0.04" height="9.68"/><rect class="cls-18" x="17.35" y="3.34" width="0.04" height="9.68"/><rect class="cls-19" x="17.38" y="3.34" width="0.04" height="9.68"/><rect class="cls-19" x="17.42" y="3.34" width="0.04" height="9.68"/><rect class="cls-19" x="17.45" y="3.34" width="0.04" height="9.68"/><rect class="cls-19" x="17.49" y="3.34" width="0.04" height="9.68"/><rect class="cls-19" x="17.53" y="3.34" width="0.04" height="9.68"/><rect class="cls-19" x="17.56" y="3.34" width="0.04" height="9.68"/><rect class="cls-19" x="17.6" y="3.34" width="0.04" height="9.68"/><rect class="cls-19" x="17.63" y="3.34" width="0.04" height="9.68"/><rect class="cls-20" x="17.67" y="3.34" width="0.04" height="9.68"/><rect class="cls-20" x="17.7" y="3.34" width="0.04" height="9.68"/><rect class="cls-20" x="17.74" y="3.34" width="0.04" height="9.68"/><rect class="cls-20" x="17.78" y="3.34" width="0.04" height="9.68"/><rect class="cls-20" x="17.81" y="3.34" width="0.04" height="9.68"/><rect class="cls-21" x="17.85" y="3.34" width="0.04" height="9.68"/><rect class="cls-21" x="17.88" y="3.34" width="0.04" height="9.68"/><rect class="cls-21" x="17.92" y="3.34" width="0.04" height="9.68"/><rect class="cls-21" x="17.95" y="3.34" width="0.04" height="9.68"/><rect class="cls-22" x="17.99" y="3.34" width="0.04" height="9.68"/><rect class="cls-22" x="18.03" y="3.34" width="0.04" height="9.68"/><rect class="cls-22" x="18.06" y="3.34" width="0.04" height="9.68"/><rect class="cls-22" x="18.1" y="3.34" width="0.04" height="9.68"/><rect class="cls-22" x="18.13" y="3.34" width="0.04" height="9.68"/><rect class="cls-22" x="18.17" y="3.34" width="0.04" height="9.68"/><rect class="cls-22" x="18.2" y="3.34" width="0.04" height="9.68"/><rect class="cls-22" x="18.24" y="3.34" width="0.04" height="9.68"/><rect class="cls-23" x="18.28" y="3.34" width="0.04" height="9.68"/><rect class="cls-23" x="18.31" y="3.34" width="0.04" height="9.68"/><rect class="cls-24" x="18.35" y="3.34" width="0.04" height="9.68"/><rect class="cls-24" x="18.38" y="3.34" width="0.04" height="9.68"/><rect class="cls-24" x="18.42" y="3.34" width="0.04" height="9.68"/><rect class="cls-24" x="18.45" y="3.34" width="0.04" height="9.68"/><rect class="cls-24" x="18.49" y="3.34" width="0.04" height="9.68"/><rect class="cls-24" x="18.53" y="3.34" width="0.04" height="9.68"/><rect class="cls-24" x="18.56" y="3.34" width="0.04" height="9.68"/><rect class="cls-25" x="18.6" y="3.34" width="0.04" height="9.68"/><rect class="cls-25" x="18.63" y="3.34" width="0.04" height="9.68"/><rect class="cls-25" x="18.67" y="3.34" width="0.04" height="9.68"/><rect class="cls-25" x="18.7" y="3.34" width="0.04" height="9.68"/><rect class="cls-25" x="18.74" y="3.34" width="0.04" height="9.68"/><rect class="cls-26" x="18.78" y="3.34" width="0.04" height="9.68"/><rect class="cls-26" x="18.81" y="3.34" width="0.04" height="9.68"/><rect class="cls-26" x="18.85" y="3.34" width="0.04" height="9.68"/><rect class="cls-27" x="18.88" y="3.34" width="0.04" height="9.68"/><rect class="cls-27" x="18.92" y="3.34" width="0.04" height="9.68"/><rect class="cls-27" x="18.95" y="3.34" width="0.04" height="9.68"/><rect class="cls-27" x="18.99" y="3.34" width="0.04" height="9.68"/><rect class="cls-27" x="19.03" y="3.34" width="0.04" height="9.68"/><rect class="cls-27" x="19.06" y="3.34" width="0.04" height="9.68"/><rect class="cls-27" x="19.1" y="3.34" width="0.04" height="9.68"/><rect class="cls-27" x="19.13" y="3.34" width="0.04" height="9.68"/><rect class="cls-27" x="19.17" y="3.34" width="0.04" height="9.68"/><rect class="cls-28" x="19.2" y="3.34" width="0.04" height="9.68"/><rect class="cls-28" x="19.24" y="3.34" width="0.04" height="9.68"/><rect class="cls-28" x="19.28" y="3.34" width="0.04" height="9.68"/><rect class="cls-28" x="19.31" y="3.34" width="0.04" height="9.68"/><rect class="cls-28" x="19.35" y="3.34" width="0.04" height="9.68"/><rect class="cls-29" x="19.38" y="3.34" width="0.04" height="9.68"/><rect class="cls-29" x="19.42" y="3.34" width="0.04" height="9.68"/><rect class="cls-29" x="19.45" y="3.34" width="0.04" height="9.68"/><rect class="cls-30" x="19.49" y="3.34" width="0.04" height="9.68"/><rect class="cls-30" x="19.53" y="3.34" width="0.04" height="9.68"/><rect class="cls-30" x="19.56" y="3.34" width="0.04" height="9.68"/><rect class="cls-30" x="19.6" y="3.34" width="0.04" height="9.68"/><rect class="cls-30" x="19.63" y="3.34" width="0.04" height="9.68"/><rect class="cls-30" x="19.67" y="3.34" width="3.23" height="9.68"/></g><g class="cls-33"><polygon class="cls-3" points="5.64 6.21 25.73 5.18 28.37 5.18 29.47 26.68 27.74 26.77 5.64 26.77 5.64 6.21"/><rect class="cls-3" x="28.92" y="5.17" width="0.09" height="21.53" transform="translate(-0.78 1.5) rotate(-2.93)"/><rect class="cls-3" x="29.02" y="5.17" width="0.09" height="21.52" transform="translate(-0.78 1.5) rotate(-2.93)"/><rect class="cls-3" x="29.11" y="5.17" width="0.09" height="21.52" transform="translate(-0.77 1.51) rotate(-2.93)"/><rect class="cls-3" x="29.21" y="5.17" width="0.09" height="21.51" transform="matrix(1, -0.05, 0.05, 1, -0.77, 1.51)"/><rect class="cls-3" x="29.3" y="5.17" width="0.09" height="21.51" transform="translate(-0.77 1.52) rotate(-2.93)"/><rect class="cls-4" x="29.39" y="5.17" width="0.09" height="21.5" transform="translate(-0.77 1.52) rotate(-2.93)"/><rect class="cls-4" x="29.49" y="5.17" width="0.09" height="21.5" transform="translate(-0.77 1.53) rotate(-2.93)"/><rect class="cls-4" x="29.58" y="5.17" width="0.09" height="21.49" transform="translate(-0.77 1.53) rotate(-2.93)"/><rect class="cls-5" x="29.68" y="5.17" width="0.09" height="21.49" transform="translate(-0.77 1.54) rotate(-2.93)"/><rect class="cls-5" x="29.77" y="5.17" width="0.09" height="21.48" transform="translate(-0.77 1.54) rotate(-2.93)"/><rect class="cls-5" x="29.87" y="5.17" width="0.09" height="21.48" transform="translate(-0.77 1.55) rotate(-2.93)"/><rect class="cls-5" x="29.96" y="5.17" width="0.09" height="21.47" transform="translate(-0.77 1.55) rotate(-2.93)"/><rect class="cls-5" x="30.06" y="5.17" width="0.09" height="21.47" transform="translate(-0.77 1.56) rotate(-2.93)"/><rect class="cls-6" x="30.15" y="5.17" width="0.09" height="21.46" transform="translate(-0.77 1.56) rotate(-2.93)"/><rect class="cls-6" x="30.25" y="5.17" width="0.09" height="21.46" transform="translate(-0.77 1.57) rotate(-2.93)"/><rect class="cls-6" x="30.34" y="5.17" width="0.09" height="21.45" transform="translate(-0.77 1.57) rotate(-2.93)"/><rect class="cls-6" x="30.43" y="5.17" width="0.09" height="21.45" transform="matrix(1, -0.05, 0.05, 1, -0.77, 1.58)"/><rect class="cls-6" x="30.53" y="5.17" width="0.09" height="21.44" transform="translate(-0.77 1.58) rotate(-2.93)"/><rect class="cls-6" x="30.62" y="5.17" width="0.09" height="21.44" transform="translate(-0.77 1.59) rotate(-2.93)"/><rect class="cls-6" x="30.72" y="5.17" width="0.09" height="21.43" transform="translate(-0.77 1.59) rotate(-2.93)"/><rect class="cls-6" x="30.81" y="5.17" width="0.09" height="21.43" transform="translate(-0.77 1.6) rotate(-2.93)"/><rect class="cls-6" x="30.91" y="5.17" width="0.09" height="21.42" transform="translate(-0.77 1.6) rotate(-2.93)"/><rect class="cls-7" x="31" y="5.17" width="0.09" height="21.42" transform="matrix(1, -0.05, 0.05, 1, -0.77, 1.61)"/><rect class="cls-7" x="31.1" y="5.17" width="0.09" height="21.41" transform="translate(-0.77 1.61) rotate(-2.93)"/><rect class="cls-7" x="31.19" y="5.17" width="0.09" height="21.41" transform="translate(-0.77 1.62) rotate(-2.93)"/><rect class="cls-8" x="31.29" y="5.17" width="0.09" height="21.41" transform="matrix(1, -0.05, 0.05, 1, -0.77, 1.62)"/><rect class="cls-8" x="31.38" y="5.17" width="0.09" height="21.4" transform="translate(-0.77 1.62) rotate(-2.93)"/><rect class="cls-8" x="31.47" y="5.17" width="0.09" height="21.4" transform="translate(-0.77 1.63) rotate(-2.93)"/><rect class="cls-8" x="31.57" y="5.17" width="0.09" height="21.39" transform="translate(-0.77 1.63) rotate(-2.93)"/><rect class="cls-8" x="31.66" y="5.17" width="0.09" height="21.39" transform="matrix(1, -0.05, 0.05, 1, -0.77, 1.64)"/><rect class="cls-9" x="31.76" y="5.17" width="0.09" height="21.38" transform="translate(-0.77 1.64) rotate(-2.93)"/><rect class="cls-9" x="31.85" y="5.17" width="0.09" height="21.38" transform="matrix(1, -0.05, 0.05, 1, -0.77, 1.65)"/><rect class="cls-9" x="31.95" y="5.17" width="0.09" height="21.37" transform="matrix(1, -0.05, 0.05, 1, -0.77, 1.65)"/><rect class="cls-9" x="32.04" y="5.17" width="0.09" height="21.37" transform="translate(-0.77 1.66) rotate(-2.93)"/><rect class="cls-9" x="32.14" y="5.17" width="0.09" height="21.36" transform="translate(-0.77 1.66) rotate(-2.93)"/><rect class="cls-9" x="32.23" y="5.17" width="0.09" height="21.36" transform="translate(-0.77 1.67) rotate(-2.93)"/><rect class="cls-9" x="32.32" y="5.17" width="0.09" height="21.35" transform="translate(-0.77 1.67) rotate(-2.93)"/><rect class="cls-10" x="32.42" y="5.17" width="0.09" height="21.35" transform="translate(-0.77 1.68) rotate(-2.93)"/><rect class="cls-10" x="32.51" y="5.17" width="0.09" height="21.34" transform="translate(-0.77 1.68) rotate(-2.93)"/><rect class="cls-11" x="32.61" y="5.17" width="0.09" height="21.34" transform="translate(-0.77 1.69) rotate(-2.93)"/><rect class="cls-11" x="32.7" y="5.17" width="0.09" height="21.33" transform="translate(-0.77 1.69) rotate(-2.93)"/><rect class="cls-11" x="32.8" y="5.17" width="0.09" height="21.33" transform="translate(-0.77 1.7) rotate(-2.93)"/><rect class="cls-11" x="32.89" y="5.17" width="0.09" height="21.32" transform="matrix(1, -0.05, 0.05, 1, -0.77, 1.7)"/><rect class="cls-11" x="32.99" y="5.17" width="0.09" height="21.32" transform="translate(-0.76 1.71) rotate(-2.93)"/><rect class="cls-11" x="33.08" y="5.17" width="0.09" height="21.31" transform="translate(-0.76 1.71) rotate(-2.93)"/><rect class="cls-11" x="33.18" y="5.17" width="0.09" height="21.31" transform="translate(-0.76 1.72) rotate(-2.93)"/><rect class="cls-11" x="33.27" y="5.17" width="0.09" height="21.3" transform="translate(-0.76 1.72) rotate(-2.93)"/><rect class="cls-12" x="33.36" y="5.17" width="0.09" height="21.3" transform="translate(-0.76 1.73) rotate(-2.93)"/><rect class="cls-12" x="33.46" y="5.17" width="0.09" height="21.29" transform="translate(-0.76 1.73) rotate(-2.93)"/><rect class="cls-12" x="33.55" y="5.17" width="0.09" height="21.29" transform="translate(-0.76 1.74) rotate(-2.93)"/><rect class="cls-12" x="33.65" y="5.17" width="0.09" height="21.28" transform="translate(-0.76 1.74) rotate(-2.93)"/><rect class="cls-13" x="33.74" y="5.17" width="0.09" height="21.28" transform="translate(-0.76 1.75) rotate(-2.93)"/><rect class="cls-13" x="33.84" y="5.17" width="0.09" height="21.27" transform="translate(-0.76 1.75) rotate(-2.93)"/><rect class="cls-13" x="33.93" y="5.17" width="0.09" height="21.27" transform="translate(-0.76 1.75) rotate(-2.93)"/><rect class="cls-13" x="34.03" y="5.17" width="0.09" height="21.26" transform="translate(-0.76 1.76) rotate(-2.93)"/><rect class="cls-13" x="34.12" y="5.17" width="0.09" height="21.26" transform="translate(-0.76 1.76) rotate(-2.93)"/><rect class="cls-14" x="34.22" y="5.17" width="0.09" height="21.26" transform="translate(-0.76 1.77) rotate(-2.93)"/><rect class="cls-14" x="34.31" y="5.17" width="0.09" height="21.25" transform="translate(-0.76 1.77) rotate(-2.93)"/><rect class="cls-14" x="34.4" y="5.17" width="0.09" height="21.25" transform="translate(-0.76 1.78) rotate(-2.93)"/><rect class="cls-14" x="34.5" y="5.17" width="0.09" height="21.24" transform="translate(-0.76 1.78) rotate(-2.93)"/><rect class="cls-14" x="34.59" y="5.17" width="0.09" height="21.24" transform="translate(-0.76 1.79) rotate(-2.93)"/><rect class="cls-14" x="34.69" y="5.17" width="0.09" height="21.23" transform="translate(-0.76 1.79) rotate(-2.93)"/><rect class="cls-14" x="34.78" y="5.17" width="0.09" height="21.23" transform="translate(-0.76 1.8) rotate(-2.93)"/><rect class="cls-14" x="34.88" y="5.17" width="0.09" height="21.22" transform="translate(-0.76 1.8) rotate(-2.93)"/><rect class="cls-15" x="34.97" y="5.17" width="0.09" height="21.22" transform="matrix(1, -0.05, 0.05, 1, -0.76, 1.81)"/><rect class="cls-15" x="35.07" y="5.17" width="0.09" height="21.21" transform="translate(-0.76 1.81) rotate(-2.93)"/><rect class="cls-16" x="35.16" y="5.17" width="0.09" height="21.21" transform="translate(-0.76 1.82) rotate(-2.93)"/><rect class="cls-16" x="35.26" y="5.17" width="0.09" height="21.2" transform="translate(-0.76 1.82) rotate(-2.93)"/><rect class="cls-16" x="35.35" y="5.17" width="0.09" height="21.2" transform="translate(-0.76 1.83) rotate(-2.93)"/><rect class="cls-16" x="35.44" y="5.17" width="0.09" height="21.19" transform="translate(-0.76 1.83) rotate(-2.93)"/><rect class="cls-16" x="35.54" y="5.17" width="0.09" height="21.19" transform="translate(-0.76 1.84) rotate(-2.93)"/><rect class="cls-16" x="35.63" y="5.17" width="0.09" height="21.18" transform="translate(-0.76 1.84) rotate(-2.93)"/><rect class="cls-16" x="35.73" y="5.17" width="0.09" height="21.18" transform="translate(-0.76 1.85) rotate(-2.93)"/><rect class="cls-17" x="35.82" y="5.17" width="0.09" height="21.17" transform="translate(-0.76 1.85) rotate(-2.93)"/><rect class="cls-17" x="35.92" y="5.17" width="0.09" height="21.17" transform="translate(-0.76 1.86) rotate(-2.93)"/><rect class="cls-17" x="36.01" y="5.17" width="0.09" height="21.16" transform="translate(-0.76 1.86) rotate(-2.93)"/><rect class="cls-17" x="36.11" y="5.17" width="0.09" height="21.16" transform="translate(-0.76 1.87) rotate(-2.93)"/><rect class="cls-17" x="36.2" y="5.17" width="0.09" height="21.15" transform="translate(-0.76 1.87) rotate(-2.93)"/><rect class="cls-17" x="36.29" y="5.17" width="0.09" height="21.15" transform="translate(-0.76 1.88) rotate(-2.93)"/><rect class="cls-17" x="36.39" y="5.17" width="0.09" height="21.14" transform="translate(-0.76 1.88) rotate(-2.93)"/><rect class="cls-18" x="36.48" y="5.17" width="0.09" height="21.14" transform="translate(-0.76 1.89) rotate(-2.93)"/><rect class="cls-18" x="36.58" y="5.17" width="0.09" height="21.13" transform="translate(-0.76 1.89) rotate(-2.93)"/><rect class="cls-19" x="36.67" y="5.17" width="0.09" height="21.13" transform="translate(-0.76 1.89) rotate(-2.93)"/><rect class="cls-19" x="36.77" y="5.17" width="0.09" height="21.12" transform="translate(-0.75 1.9) rotate(-2.93)"/><rect class="cls-19" x="36.86" y="5.17" width="0.09" height="21.12" transform="translate(-0.75 1.9) rotate(-2.93)"/><rect class="cls-19" x="36.96" y="5.17" width="0.09" height="21.12" transform="translate(-0.75 1.91) rotate(-2.93)"/><rect class="cls-19" x="37.05" y="5.17" width="0.09" height="21.11" transform="translate(-0.75 1.91) rotate(-2.93)"/><rect class="cls-19" x="37.15" y="5.17" width="0.09" height="21.11" transform="translate(-0.75 1.92) rotate(-2.93)"/><rect class="cls-19" x="37.24" y="5.17" width="0.09" height="21.1" transform="translate(-0.75 1.92) rotate(-2.93)"/><rect class="cls-19" x="37.33" y="5.17" width="0.09" height="21.1" transform="translate(-0.75 1.93) rotate(-2.93)"/><rect class="cls-20" x="37.43" y="5.17" width="0.09" height="21.09" transform="translate(-0.75 1.93) rotate(-2.93)"/><rect class="cls-20" x="37.52" y="5.17" width="0.09" height="21.09" transform="translate(-0.75 1.94) rotate(-2.93)"/><rect class="cls-20" x="37.62" y="5.17" width="0.09" height="21.08" transform="translate(-0.75 1.94) rotate(-2.93)"/><rect class="cls-20" x="37.71" y="5.17" width="0.09" height="21.08" transform="translate(-0.75 1.95) rotate(-2.93)"/><rect class="cls-20" x="37.81" y="5.17" width="0.09" height="21.07" transform="translate(-0.75 1.95) rotate(-2.93)"/><rect class="cls-21" x="37.9" y="5.17" width="0.09" height="21.07" transform="translate(-0.75 1.96) rotate(-2.93)"/><rect class="cls-21" x="38" y="5.17" width="0.09" height="21.06" transform="translate(-0.75 1.96) rotate(-2.93)"/><rect class="cls-21" x="38.09" y="5.17" width="0.09" height="21.06" transform="translate(-0.75 1.97) rotate(-2.93)"/><rect class="cls-21" x="38.19" y="5.17" width="0.09" height="21.05" transform="translate(-0.75 1.97) rotate(-2.93)"/><rect class="cls-22" x="38.28" y="5.17" width="0.09" height="21.05" transform="translate(-0.75 1.98) rotate(-2.93)"/><rect class="cls-22" x="38.37" y="5.17" width="0.09" height="21.04" transform="translate(-0.75 1.98) rotate(-2.93)"/><rect class="cls-22" x="38.47" y="5.17" width="0.09" height="21.04" transform="translate(-0.75 1.99) rotate(-2.93)"/><rect class="cls-22" x="38.56" y="5.17" width="0.09" height="21.03" transform="translate(-0.75 1.99) rotate(-2.93)"/><rect class="cls-22" x="38.66" y="5.17" width="0.09" height="21.03" transform="translate(-0.75 2) rotate(-2.93)"/><rect class="cls-22" x="38.75" y="5.17" width="0.09" height="21.02" transform="translate(-0.75 2) rotate(-2.93)"/><rect class="cls-22" x="38.85" y="5.17" width="0.09" height="21.02" transform="translate(-0.75 2.01) rotate(-2.93)"/><rect class="cls-22" x="38.94" y="5.17" width="0.09" height="21.01" transform="translate(-0.75 2.01) rotate(-2.93)"/><rect class="cls-23" x="39.04" y="5.17" width="0.09" height="21.01" transform="translate(-0.75 2.02) rotate(-2.93)"/><rect class="cls-23" x="39.13" y="5.17" width="0.09" height="21" transform="translate(-0.75 2.02) rotate(-2.93)"/><rect class="cls-24" x="39.23" y="5.17" width="0.09" height="21" transform="translate(-0.75 2.02) rotate(-2.93)"/><rect class="cls-24" x="39.32" y="5.17" width="0.09" height="20.99" transform="translate(-0.75 2.03) rotate(-2.93)"/><rect class="cls-24" x="39.41" y="5.17" width="0.09" height="20.99" transform="translate(-0.75 2.03) rotate(-2.93)"/><rect class="cls-24" x="39.51" y="5.17" width="0.09" height="20.98" transform="translate(-0.75 2.04) rotate(-2.93)"/><rect class="cls-24" x="39.6" y="5.17" width="0.09" height="20.98" transform="translate(-0.75 2.04) rotate(-2.93)"/><rect class="cls-24" x="39.7" y="5.17" width="0.09" height="20.98" transform="translate(-0.75 2.05) rotate(-2.93)"/><rect class="cls-24" x="39.79" y="5.17" width="0.09" height="20.97" transform="translate(-0.75 2.05) rotate(-2.93)"/><rect class="cls-25" x="39.89" y="5.17" width="0.09" height="20.97" transform="translate(-0.75 2.06) rotate(-2.93)"/><rect class="cls-25" x="39.98" y="5.17" width="0.09" height="20.96" transform="translate(-0.75 2.06) rotate(-2.93)"/><rect class="cls-25" x="40.08" y="5.17" width="0.09" height="20.96" transform="translate(-0.75 2.07) rotate(-2.93)"/><rect class="cls-25" x="40.17" y="5.17" width="0.09" height="20.95" transform="translate(-0.75 2.07) rotate(-2.93)"/><rect class="cls-25" x="40.26" y="5.17" width="0.09" height="20.95" transform="translate(-0.75 2.08) rotate(-2.93)"/><rect class="cls-26" x="40.36" y="5.17" width="0.09" height="20.94" transform="translate(-0.75 2.08) rotate(-2.93)"/><rect class="cls-26" x="40.45" y="5.17" width="0.09" height="20.94" transform="translate(-0.75 2.09) rotate(-2.93)"/><rect class="cls-26" x="40.55" y="5.17" width="0.09" height="20.93" transform="translate(-0.75 2.09) rotate(-2.93)"/><rect class="cls-27" x="40.64" y="5.17" width="0.09" height="20.93" transform="translate(-0.74 2.1) rotate(-2.93)"/><rect class="cls-27" x="40.74" y="5.17" width="0.09" height="20.92" transform="translate(-0.74 2.1) rotate(-2.93)"/><rect class="cls-27" x="40.83" y="5.17" width="0.09" height="20.92" transform="translate(-0.74 2.11) rotate(-2.93)"/><rect class="cls-27" x="40.93" y="5.17" width="0.09" height="20.91" transform="translate(-0.74 2.11) rotate(-2.93)"/><rect class="cls-27" x="41.02" y="5.17" width="0.09" height="20.91" transform="translate(-0.74 2.12) rotate(-2.93)"/><rect class="cls-27" x="41.12" y="5.17" width="0.09" height="20.9" transform="translate(-0.74 2.12) rotate(-2.93)"/><rect class="cls-27" x="41.21" y="5.17" width="0.09" height="20.9" transform="translate(-0.74 2.13) rotate(-2.93)"/><rect class="cls-27" x="41.3" y="5.17" width="0.09" height="20.89" transform="translate(-0.74 2.13) rotate(-2.93)"/><rect class="cls-27" x="41.4" y="5.17" width="0.09" height="20.89" transform="matrix(1, -0.05, 0.05, 1, -0.74, 2.14)"/><rect class="cls-28" x="41.49" y="5.17" width="0.09" height="20.88" transform="translate(-0.74 2.14) rotate(-2.93)"/><rect class="cls-28" x="41.59" y="5.17" width="0.09" height="20.88" transform="translate(-0.74 2.15) rotate(-2.93)"/><rect class="cls-28" x="41.68" y="5.17" width="0.09" height="20.87" transform="translate(-0.74 2.15) rotate(-2.93)"/><rect class="cls-28" x="41.78" y="5.17" width="0.09" height="20.87" transform="translate(-0.74 2.16) rotate(-2.93)"/><rect class="cls-28" x="41.87" y="5.17" width="0.09" height="20.86" transform="matrix(1, -0.05, 0.05, 1, -0.74, 2.16)"/><rect class="cls-29" x="41.97" y="5.17" width="0.09" height="20.86" transform="translate(-0.74 2.16) rotate(-2.93)"/><rect class="cls-29" x="42.06" y="5.17" width="0.09" height="20.85" transform="translate(-0.74 2.17) rotate(-2.93)"/><rect class="cls-29" x="42.16" y="5.17" width="0.09" height="20.85" transform="translate(-0.74 2.17) rotate(-2.93)"/><rect class="cls-30" x="42.25" y="5.17" width="0.09" height="20.84" transform="translate(-0.74 2.18) rotate(-2.93)"/><rect class="cls-30" x="42.34" y="5.17" width="0.09" height="20.84" transform="translate(-0.74 2.18) rotate(-2.93)"/><rect class="cls-30" x="42.44" y="5.17" width="0.09" height="20.84" transform="matrix(1, -0.05, 0.05, 1, -0.74, 2.19)"/><rect class="cls-30" x="42.53" y="5.17" width="0.09" height="20.83" transform="translate(-0.74 2.19) rotate(-2.93)"/><rect class="cls-30" x="42.63" y="5.17" width="0.09" height="20.83" transform="translate(-0.74 2.2) rotate(-2.93)"/><polygon class="cls-30" points="46.55 25.81 43.25 25.98 42.19 5.18 46.55 5.18 46.55 25.81"/></g><path class="cls-30" d="M125.61,5.51h2.26v19h-2.15l-.08-1.82a7.67,7.67,0,0,1-6.85,2.11A7.48,7.48,0,0,1,114.15,22a7.4,7.4,0,0,1,.27-9.56c2.83-3.16,6.68-3.36,11.19-.52ZM114.87,17.37a5.4,5.4,0,1,0,5.4-5.51A5.47,5.47,0,0,0,114.87,17.37Z"/><path class="cls-30" d="M145.88,24.52h-2.24V23a24,24,0,0,1-4,1.81,7.53,7.53,0,1,1,6.24-7.7C146,19.54,145.88,22,145.88,24.52Zm-13.06-7.09a5.4,5.4,0,1,0,5.44-5.57A5.46,5.46,0,0,0,132.82,17.43Z"/><path class="cls-30" d="M87.09,25a7.63,7.63,0,0,1-7.69-7.56,7.71,7.71,0,0,1,15.42.05A7.61,7.61,0,0,1,87.09,25Zm-5.35-7.52A5.42,5.42,0,0,0,87.1,23a5.55,5.55,0,1,0-5.36-5.53Z"/><path class="cls-30" d="M110.11,24.54h-2.22v-1c0-2.43,0-4.86,0-7.28a4.25,4.25,0,1,0-8.5,0c0,2.73,0,5.46,0,8.26H97.13a5.39,5.39,0,0,1-.06-.66c0-2.76-.08-5.53.08-8.29a6.34,6.34,0,0,1,6.31-5.7c3.35-.07,6.39,2.28,6.61,5.46S110.11,21.44,110.11,24.54Z"/><path class="cls-31" d="M170.72,11.42h-2.19C167.74,9,166.41,8,164.32,8.29a4.14,4.14,0,0,0-2,1,2.16,2.16,0,0,0,.24,3.53,17.33,17.33,0,0,0,3,1.39c.8.33,1.66.52,2.44.88,4.08,1.86,4.53,6.69.88,9.3a6.64,6.64,0,0,1-10-3.67,10.57,10.57,0,0,1-.17-1.34h2A16.72,16.72,0,0,0,162,22a4,4,0,0,0,4.63,1.18A3.48,3.48,0,0,0,169,19.78a2.88,2.88,0,0,0-1.67-2.66c-.93-.47-1.95-.75-2.91-1.15a18.67,18.67,0,0,1-3-1.33,4.14,4.14,0,0,1-.68-6.83,5.81,5.81,0,0,1,6.08-1.33,5.37,5.37,0,0,1,3.85,4.1C170.66,10.84,170.67,11.1,170.72,11.42Z"/><path class="cls-31" d="M180.72,25.47a7.43,7.43,0,0,1-7.48-7.33,7.49,7.49,0,0,1,15,0A7.4,7.4,0,0,1,180.72,25.47Zm-5.2-7.28a5.27,5.27,0,0,0,5.23,5.34,5.4,5.4,0,1,0-5.23-5.34Z"/><path class="cls-31" d="M191.41,13.1h-1.92V11.22h1.83a5.42,5.42,0,0,1,2.4-4.34,4.6,4.6,0,0,1,3.17-.78V7.88c-2.33.73-3.18,1.61-3.14,3.3h3.13v1.94h-3.23V25h-2.24Z"/><path class="cls-31" d="M205,13.13h-4v5.68c0,2.88,1.15,4.24,4,4.8v1.82a6,6,0,0,1-4.42-1.77,5.34,5.34,0,0,1-1.82-3.87c-.05-4.29,0-8.59,0-12.88a1.82,1.82,0,0,1,.07-.31h2.12v4.56H205Z"/><path class="cls-30" d="M70.57,14.53l8.69,10c-1.1,0-2,0-2.9,0a1,1,0,0,1-.57-.39l-8-9.63L69,12.89c1.71-2.17,3.46-4.31,5.13-6.51a1.9,1.9,0,0,1,1.92-.92,17.78,17.78,0,0,0,1.82,0Z"/><path class="cls-30" d="M67,24.53H64.78v-19H67Z"/><path class="cls-30" d="M155.21,9.9v1.89c-.47.11-.92.18-1.35.32A4.11,4.11,0,0,0,151,16.2c0,2.42,0,4.84,0,7.27v1.05h-2.17c0-.08-.11-.16-.11-.24,0-2.88-.09-5.77.06-8.65A6.28,6.28,0,0,1,155.21,9.9Z"/></svg>