<?xml version="1.0" encoding="utf-8"?>
<svg version="1.1" id="Layer_1" xmlns="http://www.w3.org/2000/svg" xmlns:xlink="http://www.w3.org/1999/xlink" x="0px" y="0px"
	 viewBox="0 0 968 144.3" style="enable-background:new 0 0 968 144.3;" xml:space="preserve">
<style type="text/css">
	.st0{fill:#231F20;}
	.st1{fill:#FFFFFF;}
	.st2{fill:#E61D26;}
</style>
<g>
	<rect class="st0" width="968" height="144.3"/>
	<polygon class="st1" points="67.7,47.8 72.2,61.8 86.9,61.8 75,70.5 79.6,84.5 67.7,75.8 55.8,84.5 60.3,70.5 48.4,61.8 63.1,61.8 
			"/>
	<path class="st2" d="M567.4,24.9h10.2v85.9h-9.7c-0.1-2.6-0.2-5.1-0.4-8.2c-9.1,8.2-19.2,11.7-30.9,9.5c-8.6-1.6-15.5-5.8-21-12.6
		c-10.2-12.8-9.7-31,1.2-43.2c12.7-14.3,30.2-15.2,50.5-2.4V24.9z M518.9,78.5c-0.1,13.8,10.7,25.1,24,25.2
		c13.6,0.1,24.8-11,24.8-24.8c0.1-13.9-11-25.3-24.4-25.3C530,53.6,518.9,64.8,518.9,78.5"/>
	<path class="st2" d="M659,110.8h-10.1v-7c-6,2.8-11.8,6.6-18.1,8.1c-18.1,4.4-36.9-8.2-40.5-26.3c-3.7-18.6,8.3-36.6,26.7-40.2
		c21.4-4.2,40.7,10.1,42,31.8C659.5,88.3,659,99.5,659,110.8 M600,78.7c0,13.8,10.8,24.9,24.2,25c13.6,0.1,24.6-11.2,24.6-25.1
		c0-13.7-11-25-24.2-25.1C611.1,53.5,599.9,64.9,600,78.7"/>
	<path class="st2" d="M393.4,112.7c-19.2,0-34.8-15.4-34.7-34.2c0-18.7,15.8-34.1,35-34c19.1,0,34.8,15.5,34.7,34.2
		C428.2,97.7,412.7,112.8,393.4,112.7 M369.2,78.7c0,13.9,10.7,25,24.2,25c13.4,0,24.4-11.1,24.5-24.9c0.1-13.8-11.2-25.4-24.5-25.3
		C380.1,53.6,369.2,65,369.2,78.7"/>
	<path class="st2" d="M497.4,110.8h-10.1c0-1.6,0-3.1,0-4.6c0-11,0.1-21.9,0-32.9c-0.1-11.5-8.2-19.8-19.2-19.8
		c-11,0-19.1,8.2-19.2,19.8c-0.1,12.3,0,24.7,0,37.3h-10.1c-0.1-1.1-0.3-2-0.3-3c0.1-12.5-0.3-25,0.4-37.4
		c0.8-14.3,13.7-25.4,28.5-25.7c15.1-0.3,28.8,10.3,29.8,24.7C498.1,83,497.4,96.8,497.4,110.8"/>
	<path class="st1" d="M771.1,51.6h-9.9c-3.6-10.8-9.6-15.5-19-14.1c-3.3,0.5-6.8,2.2-9.2,4.4c-5.2,4.7-4.7,12.1,1.1,16
		c4.1,2.7,8.9,4.4,13.5,6.3c3.6,1.5,7.5,2.4,11,4c18.4,8.4,20.5,30.2,4,42c-16,11.5-40.8,2.4-45.4-16.6c-0.4-1.8-0.5-3.7-0.8-6.1
		h5.2h4c2.2,4.3,3.5,8.5,6,11.8c4.7,6.3,13.3,8.2,20.9,5.4c6.7-2.5,10.6-8.2,10.6-15.2c0-5.6-2.9-9.6-7.6-12
		c-4.2-2.1-8.8-3.4-13.1-5.2c-4.6-1.9-9.5-3.4-13.7-6c-11.8-7.4-13.2-21.2-3.1-30.9c7.8-7.5,17.2-9.1,27.5-6
		c9.3,2.8,15,9.2,17.4,18.5C770.9,49,770.9,50.2,771.1,51.6"/>
	<path class="st1" d="M816.3,115c-18.7,0-33.8-14.9-33.8-33.1c0-18.2,15.3-33.1,33.9-33.1c18.6,0,33.8,15,33.8,33.2
		C850.1,100.3,835.1,115,816.3,115 M792.8,82.2c0.1,13.5,10.5,24.1,23.7,24.1c13,0,23.6-11,23.6-24.3c0-13.4-11-24.6-24-24.4
		C803.2,57.7,792.7,68.7,792.8,82.2"/>
	<path class="st1" d="M864.6,59.2h-8.7v-8.5h8.3c0.7-8.3,3.9-15.1,10.8-19.6c4.3-2.8,8.9-4.2,14.3-3.6v8
		c-10.5,3.3-14.4,7.3-14.2,14.9h14.2v8.8h-14.6v53.8h-10.1V59.2z"/>
	<path class="st1" d="M926,59.3h-18.3v9.9c0,5.3,0,10.5,0,15.8c0,13,5.2,19.2,18.3,21.7v8.2c-7.9,0.3-14.4-2.8-20-8
		c-5-4.7-8.1-10.6-8.2-17.5c-0.2-19.4-0.1-38.8-0.1-58.2c0-0.4,0.2-0.8,0.3-1.4h9.6v20.6H926V59.3z"/>
	<path class="st2" d="M318.8,65.6c13,15,25.8,29.8,39.2,45.3c-4.9,0-9,0.1-13.1-0.1c-0.9,0-1.9-1-2.6-1.8
		c-12-14.4-24-28.8-36.3-43.5c1.9-2.5,3.9-5,5.8-7.4c7.8-9.8,15.7-19.5,23.2-29.4c2.4-3.1,4.8-4.7,8.7-4.2c2.3,0.3,4.7,0.1,8.2,0.1
		C340.5,38.7,329.7,52.1,318.8,65.6"/>
	<rect x="292.6" y="24.9" class="st2" width="10.1" height="85.9"/>
	<path class="st2" d="M701.1,44.7v8.5c-2.1,0.5-4.2,0.8-6.1,1.4c-7.9,2.6-12.8,9.4-12.9,18.5c-0.1,10.9,0,21.9,0,32.8
		c0,1.5,0,3,0,4.7h-10.3c0-0.4,0-0.7,0-1.1c0-13-0.4-26.1,0.2-39.1C672.8,56,685.7,44.8,701.1,44.7"/>
	<path class="st2" d="M154.1,26c-7.2,1.9-13.7,5.2-19.6,9.2c-5.9,4-11.1,8.9-15.5,14.3c-2.2,2.7-4.2,5.6-6,8.6
		c-1.8,3-3.2,5.9-4.5,8.8c-2.7,5.8-4.9,11.4-7.4,16.6c-2.4,5.2-5,10.1-8.1,14.2c-3.1,4.1-6.9,7.3-11.5,9.4c-2.3,1.1-4.8,1.8-7.4,2.4
		c-2.6,0.6-5.3,0.9-8.1,1c-5.3,0.3-10.6-0.8-15.5-3.2c-4.9-2.4-9.4-6-13.2-10.4c-3.8-4.3-7.2-9.4-9.6-14.7L25.5,83
		c1.7,6,4.3,11.7,7.7,17.1c3.4,5.3,7.9,10.2,13.4,14c5.5,3.8,12.3,6.1,19.1,6.6c3.3,0.2,6.6,0.3,10,0c3.4-0.3,6.8-1,10.2-2.1
		c3.4-1.1,6.6-2.7,9.6-4.6c3-2,5.7-4.3,8.2-6.8c4.9-5,8.5-10.7,11.7-16.2c6.3-11,11.1-21.9,18.1-28.8c7.1-7.3,16.7-12.1,26-13.7
		c4.6-0.8,9-0.7,12.8,0.1c3.8,0.9,6.9,2.4,9.7,5c0.7,0.6,1.3,1.3,2,2.1c0.3,0.4,0.6,0.8,0.9,1.2c0.3,0.4,0.6,0.8,0.9,1.4
		c1.3,2.1,2.5,4.2,3.4,6.3c1.9,4.3,3,8.7,3,13.3c0,9.2-5.1,19.7-14.4,27.4l0.8,2.1c3.3-0.3,6.5-1.3,9.6-2.8c3-1.4,6-3.3,8.6-5.6
		c2.6-2.3,5.1-5,7.1-8c2-3.1,3.7-6.5,4.7-10.1c1.1-3.6,1.6-7.5,1.7-11.3c0-3.8-0.4-7.6-1.3-11.3c-0.9-3.6-2-7.2-3.6-10.4
		c-0.3-0.8-0.8-1.7-1.3-2.6c-0.5-0.9-1-1.8-1.5-2.6c-1.1-1.7-2.3-3.4-3.7-5c-2.8-3.2-6.1-5.9-9.8-8.1c-3.7-2.1-7.7-3.7-11.7-4.5
		c-3.3-0.7-6.5-1-9.7-1C163,24.1,158.4,24.8,154.1,26"/>
	<path class="st2" d="M206.7,29.2c5.5,6.2,10.5,12,14.2,18.2c3.8,6.1,6.3,12.5,7.4,18.8l0.4,2.4c0,0.8,0.1,1.6,0.2,2.4
		c0.2,1.6,0.1,3.2,0.2,4.7c0,0.4,0,0.8,0,1.2l-0.1,1.2c-0.1,0.8-0.1,1.6-0.1,2.4c0,0.8-0.2,1.6-0.3,2.4c-0.1,0.8-0.2,1.6-0.4,2.4
		c-1.3,6.3-4.1,12.6-8.6,17.8c-4.4,5.2-10.3,9.1-16.9,11.5c-6.5,2.5-13.8,3.3-21.1,2.5c-7.3-0.7-14.6-3.1-21.5-6.5l-5.1-2.7
		c-1.7-0.9-3.3-2.1-4.9-3.1l-2.5-1.6l-2.3-1.8l-4.7-3.6l-1.2,1.3c5.4,5.9,11.2,11.7,18,16.3c6.8,4.6,14.4,8.3,22.8,10.4
		c8.3,2,17.3,2.2,26,0.1c8.6-2.2,16.9-6.5,23.5-12.8c6.6-6.2,12.1-14,15.3-22.9c3.2-8.9,3.3-19.1,0.5-28.1
		c-2.8-9.1-8.3-16.9-15-22.7c-6.7-5.8-14.6-9.6-22.7-11.6L206.7,29.2z"/>
	<path class="st2" d="M55.6,20.1c-31.6,5-38.4,37-38.4,37s14.2-27,41.3-27.2c25.7-0.2,36.5,18.8,42.9,28.3c2.1,0.6,2.1-1.9,2.1-1.9
		S89,19.7,60.9,19.7C59.2,19.7,57.4,19.8,55.6,20.1"/>
</g>
</svg>